<mxfile host="app.diagrams.net" modified="2023-05-04T10:53:37.746Z" agent="Mozilla/5.0 (Windows NT 10.0; Win64; x64) AppleWebKit/537.36 (KHTML, like Gecko) Chrome/113.0.0.0 Safari/537.36" etag="nVIOt5_srNbFRy3A9PyB" version="21.2.7" type="onedrive">
  <diagram name="Page-1" id="vZG0ht2c73yVH-cm6mxB">
    <mxGraphModel grid="1" page="1" gridSize="10" guides="1" tooltips="1" connect="1" arrows="1" fold="1" pageScale="1" pageWidth="850" pageHeight="1100" math="0" shadow="0">
      <root>
        <mxCell id="0" />
        <mxCell id="1" parent="0" />
        <mxCell id="qzfPh0R4DOmGVW-_xvvh-1" value="cd: Update quantities" style="shape=umlFrame;whiteSpace=wrap;html=1;pointerEvents=0;width=211;height=19;" vertex="1" parent="1">
          <mxGeometry x="40" y="40" width="720" height="259" as="geometry" />
        </mxCell>
        <mxCell id="qzfPh0R4DOmGVW-_xvvh-2" style="edgeStyle=none;rounded=0;orthogonalLoop=1;jettySize=auto;html=1;endArrow=none;endFill=0;entryX=0;entryY=0;entryDx=0;entryDy=0;" edge="1" parent="1" target="qzfPh0R4DOmGVW-_xvvh-3">
          <mxGeometry relative="1" as="geometry">
            <mxPoint x="41" y="109" as="sourcePoint" />
          </mxGeometry>
        </mxCell>
        <mxCell id="qzfPh0R4DOmGVW-_xvvh-3" value="&lt;u&gt;orderController: OrderController&lt;/u&gt;" style="html=1;whiteSpace=wrap;" vertex="1" parent="1">
          <mxGeometry x="111" y="109" width="560" height="40" as="geometry" />
        </mxCell>
        <mxCell id="qzfPh0R4DOmGVW-_xvvh-4" value="updateQuantities(reportid,catalogNum, newAmount) )" style="html=1;verticalAlign=bottom;endArrow=block;edgeStyle=orthogonalEdgeStyle;elbow=vertical;strokeColor=default;curved=1;shadow=0;" edge="1" parent="1">
          <mxGeometry x="1" y="46" width="80" relative="1" as="geometry">
            <mxPoint x="65" y="99" as="sourcePoint" />
            <mxPoint x="135" y="99" as="targetPoint" />
            <mxPoint x="45" y="37" as="offset" />
          </mxGeometry>
        </mxCell>
        <mxCell id="qzfPh0R4DOmGVW-_xvvh-7" value="&lt;u&gt;report: PeriodicReport&lt;/u&gt;" style="html=1;whiteSpace=wrap;" vertex="1" parent="1">
          <mxGeometry x="300" y="249" width="90" height="40" as="geometry" />
        </mxCell>
        <mxCell id="qzfPh0R4DOmGVW-_xvvh-8" value="&lt;font style=&quot;font-size: 9px;&quot;&gt;2. suppItem = getItemByCatNum(catalogNum)&lt;br&gt;&lt;/font&gt;" style="html=1;verticalAlign=bottom;endArrow=block;edgeStyle=elbowEdgeStyle;elbow=vertical;curved=0;rounded=0;" edge="1" parent="1">
          <mxGeometry x="0.2" y="100" width="80" relative="1" as="geometry">
            <mxPoint x="350" y="158" as="sourcePoint" />
            <mxPoint x="350" y="228" as="targetPoint" />
            <mxPoint as="offset" />
            <Array as="points">
              <mxPoint x="350" y="190" />
            </Array>
          </mxGeometry>
        </mxCell>
        <mxCell id="qzfPh0R4DOmGVW-_xvvh-9" value="" style="endArrow=open;endFill=1;endSize=12;html=1;rounded=0;entryX=0.415;entryY=-0.019;entryDx=0;entryDy=0;entryPerimeter=0;exitX=0.404;exitY=1.009;exitDx=0;exitDy=0;exitPerimeter=0;" edge="1" parent="1" source="qzfPh0R4DOmGVW-_xvvh-3" target="qzfPh0R4DOmGVW-_xvvh-7">
          <mxGeometry width="160" relative="1" as="geometry">
            <mxPoint x="413" y="149" as="sourcePoint" />
            <mxPoint x="541" y="299" as="targetPoint" />
          </mxGeometry>
        </mxCell>
        <mxCell id="qzfPh0R4DOmGVW-_xvvh-10" value="&lt;u&gt;&lt;font style=&quot;font-size: 11px;&quot;&gt;reportDataMap: PeriodicReportDataMapper&lt;/font&gt;&lt;/u&gt;" style="html=1;whiteSpace=wrap;" vertex="1" parent="1">
          <mxGeometry x="129" y="249" width="140" height="40" as="geometry" />
        </mxCell>
        <mxCell id="qzfPh0R4DOmGVW-_xvvh-11" value="&lt;font style=&quot;font-size: 9px;&quot;&gt;1. report = find (reportid)&lt;br&gt;&lt;/font&gt;" style="html=1;verticalAlign=bottom;endArrow=block;edgeStyle=elbowEdgeStyle;elbow=vertical;curved=0;rounded=0;" edge="1" parent="1">
          <mxGeometry y="-60" width="80" relative="1" as="geometry">
            <mxPoint x="180" y="160" as="sourcePoint" />
            <mxPoint x="180" y="200" as="targetPoint" />
            <mxPoint as="offset" />
          </mxGeometry>
        </mxCell>
        <mxCell id="qzfPh0R4DOmGVW-_xvvh-12" value="" style="endArrow=open;endFill=1;endSize=12;html=1;rounded=0;exitX=0.305;exitY=1.088;exitDx=0;exitDy=0;entryX=0.444;entryY=0.021;entryDx=0;entryDy=0;entryPerimeter=0;exitPerimeter=0;" edge="1" parent="1">
          <mxGeometry width="160" relative="1" as="geometry">
            <mxPoint x="199.79999999999995" y="152.5200000000001" as="sourcePoint" />
            <mxPoint x="201" y="249" as="targetPoint" />
          </mxGeometry>
        </mxCell>
        <mxCell id="qzfPh0R4DOmGVW-_xvvh-13" value="&lt;u&gt;suppItem: SupplierItem&lt;/u&gt;" style="html=1;whiteSpace=wrap;" vertex="1" parent="1">
          <mxGeometry x="543" y="249" width="90" height="40" as="geometry" />
        </mxCell>
        <mxCell id="qzfPh0R4DOmGVW-_xvvh-14" value="" style="endArrow=open;endFill=1;endSize=12;html=1;rounded=0;entryX=0.415;entryY=-0.019;entryDx=0;entryDy=0;entryPerimeter=0;exitX=0.404;exitY=1.009;exitDx=0;exitDy=0;exitPerimeter=0;" edge="1" parent="1">
          <mxGeometry width="160" relative="1" as="geometry">
            <mxPoint x="581" y="149" as="sourcePoint" />
            <mxPoint x="581" y="248" as="targetPoint" />
          </mxGeometry>
        </mxCell>
        <mxCell id="qzfPh0R4DOmGVW-_xvvh-15" value="&lt;font style=&quot;font-size: 9px;&quot;&gt;4. [amount &amp;gt;= newAmount] :&lt;br&gt;&amp;nbsp;setAmount(catalogNum,&lt;br&gt;newAmount)&amp;nbsp;&amp;nbsp;&lt;br&gt;&lt;/font&gt;" style="html=1;verticalAlign=bottom;endArrow=block;edgeStyle=elbowEdgeStyle;elbow=vertical;curved=0;rounded=0;" edge="1" parent="1">
          <mxGeometry x="1" y="-179" width="80" relative="1" as="geometry">
            <mxPoint x="598.66" y="168" as="sourcePoint" />
            <mxPoint x="598.66" y="238" as="targetPoint" />
            <mxPoint y="12" as="offset" />
            <Array as="points">
              <mxPoint x="598.66" y="200" />
            </Array>
          </mxGeometry>
        </mxCell>
        <mxCell id="gGIef1tMJ452CJxmgbJO-1" value="&lt;font style=&quot;font-size: 9px;&quot;&gt;3. amount = getNumberOfUnits&lt;span style=&quot;background-color: initial;&quot;&gt;()&lt;/span&gt;&lt;br&gt;&lt;/font&gt;" style="text;html=1;align=center;verticalAlign=middle;resizable=0;points=[];autosize=1;strokeColor=none;fillColor=none;" vertex="1" parent="1">
          <mxGeometry x="607" y="160" width="150" height="30" as="geometry" />
        </mxCell>
      </root>
    </mxGraphModel>
  </diagram>
</mxfile>
